Coordinates
version=1
nRows=8
nColumns=40
inDegrees=yes

Units are S.I. units (second, meters, Newtons, ...)
Angles are in degrees.

endheader
time	pelvis_tilt	pelvis_list	pelvis_rotation	pelvis_tx	pelvis_ty	pelvis_tz	hip_flexion_r	hip_adduction_r	hip_rotation_r	knee_angle_r	knee_angle_r_beta	ankle_angle_r	subtalar_angle_r	mtp_angle_r	hip_flexion_l	hip_adduction_l	hip_rotation_l	knee_angle_l	knee_angle_l_beta	ankle_angle_l	subtalar_angle_l	mtp_angle_l	lumbar_extension	lumbar_bending	lumbar_rotation	arm_flex_r	arm_add_r	arm_rot_r	elbow_flex_r	pro_sup_r	wrist_flex_r	wrist_dev_r	arm_flex_l	arm_add_l	arm_rot_l	elbow_flex_l	pro_sup_l	wrist_flex_l	wrist_dev_l
     41.45000000	     -4.45378042	     -4.25163767	     14.35569382	      1.10097644	      0.92410634	      0.50503087	      5.79768350	      2.79299404	    -17.60922486	     15.74273671	     15.74273671	     16.10488812	     -6.60170223	     -3.21417293	     29.08905971	     -6.70464883	      2.45832296	     16.51308887	     16.51308887	      6.94658871	     -0.59112444	      6.72962033	     -8.14149598	      3.59341380	      2.76381105	     71.93102870	    -19.17388339	     -2.77104960	     73.48839829	     44.94203502	      0.00000000	      0.00000000	    -21.38285435	     -8.67415766	     23.54789464	     32.47379489	     42.93487242	      0.00000000	      0.00000000
     41.47085714	     -4.50090592	     -4.51008039	     14.43815979	      1.10205601	      0.92320541	      0.50169171	      5.26180800	      2.98133945	    -17.75300968	     15.29799444	     15.29799444	     16.21685850	     -6.32686582	     -3.60378643	     28.60585386	     -6.74999393	      1.79363350	     15.73698655	     15.73698655	      5.08230971	     -0.15938310	      2.22240645	     -7.93407511	      3.72480727	      3.12646222	     72.22131304	    -19.44448682	     -3.07987185	     75.66534322	     44.93851529	      0.00000000	      0.00000000	    -20.79664218	     -8.72563294	     23.99786248	     31.92045843	     43.10916453	      0.00000000	      0.00000000
     41.49171429	     -4.62537147	     -4.66267937	     14.50906324	      1.10319416	      0.92232503	      0.49810543	      4.93638580	      2.99009579	    -17.75609657	     15.18839412	     15.18839412	     16.52305079	     -6.33941114	     -3.67184831	     28.46723731	     -6.62773294	      1.55723475	     15.80407173	     15.80407173	      4.80438154	     -0.15221037	      2.23762929	     -7.57253506	      3.64899125	      3.03558927	     72.55710284	    -19.33728135	     -3.06708082	     75.86265607	     44.93379094	      0.00000000	      0.00000000	    -20.54356299	     -8.83788930	     23.97517708	     31.95120084	     43.11856530	      0.00000000	      0.00000000
     41.51257143	     -4.50940308	     -4.78584341	     14.49653946	      1.10491566	      0.92183651	      0.49442211	      4.02376225	      3.08012030	    -17.99075358	     14.51823040	     14.51823040	     16.77085212	     -5.51434751	     -3.45846820	     28.03837499	     -6.70361395	      0.90354795	     15.90718700	     15.90718700	      3.40705699	      0.29546210	     -1.19988736	     -7.63792145	      3.63180467	      2.98718671	     72.64954042	    -19.00907579	     -3.34957029	     77.91124859	     44.90640247	      0.00000000	      0.00000000	    -19.89097542	     -8.94329195	     24.03279897	     31.40283996	     43.23361093	      0.00000000	      0.00000000
     41.53342857	     -4.46537440	     -4.88235642	     14.47028939	      1.10660619	      0.92123385	      0.49046241	      3.35023233	      3.09668568	    -17.93725935	     14.16325141	     14.16325141	     16.99467348	     -5.37677441	     -3.36333905	     27.94968498	     -6.60938018	      1.06461652	     16.65231976	     16.65231976	      3.01144432	     -0.38526483	     -1.72656402	     -7.52956005	      3.54359063	      2.89986482	     72.81119078	    -18.82903779	     -3.30845696	     78.29133031	     44.89987828	      0.00000000	      0.00000000	    -19.37153126	     -9.18784969	     23.97869534	     31.36748864	     43.27142220	      0.00000000	      0.00000000
     41.55428571	     -4.43545855	     -4.89963342	     14.36658422	      1.10847950	      0.92076043	      0.48631968	      2.65613425	      2.99177052	    -17.93422745	     13.83131415	     13.83131415	     17.38636922	     -4.92085833	     -2.87355940	     27.69578138	     -6.39606475	      1.53792244	     17.10082210	     17.10082210	      1.75704338	     -1.84081196	     -4.12160131	     -7.45345088	      3.35120597	      3.13855303	     72.41941945	    -19.06051061	     -3.46107892	     79.52700587	     44.90431226	      0.00000000	      0.00000000	    -18.49448947	     -9.41318926	     23.79801159	     30.86557872	     43.44989273	      0.00000000	      0.00000000
     41.57514286	     -4.37252627	     -4.90557659	     14.20456104	      1.11037876	      0.92036510	      0.48207140	      1.95536830	      2.87638258	    -17.80599056	     13.53292816	     13.53292816	     17.54990489	     -4.72434851	     -2.78433313	     27.71820651	     -6.25808926	      1.72744832	     18.23272091	     18.23272091	      1.75213267	     -2.63569758	     -4.33801988	     -7.37565236	      3.18507799	      3.11224619	     72.28678417	    -18.89699456	     -3.39450904	     79.57446085	     44.90514311	      0.00000000	      0.00000000	    -17.89869380	     -9.80794810	     23.67926506	     30.90406678	     43.49036873	      0.00000000	      0.00000000
     41.59600000	     -4.34066846	     -4.90448135	     13.98783828	      1.11229343	      0.92007729	      0.47774020	      1.27215856	      2.73342526	    -17.70940649	     13.20543855	     13.20543855	     17.67528309	     -4.45440737	     -2.62877860	     27.75788536	     -6.07400780	      2.08691044	     19.35850811	     19.35850811	      1.87796255	     -3.71696540	     -4.42498228	     -7.29637542	      3.03871737	      3.20443906	     72.04825510	    -18.78538310	     -3.33916640	     79.61990016	     44.90700315	      0.00000000	      0.00000000	    -17.16683378	    -10.22676634	     23.50247424	     30.95370513	     43.54434108	      0.00000000	      0.00000000
